<svg width="95" height="29" viewBox="0 0 95 29" fill="none" xmlns="http://www.w3.org/2000/svg">
<g clip-path="url(#clip0_395_1213)">
<path d="M44.2477 28.9452C38.8663 28.5505 33.54 27.4651 28.2356 25.656C24.593 24.4171 21.5116 23.0794 16.8785 20.7222L13.6541 19.0885L12.5756 20.163C11.0349 21.7089 9.57126 22.608 7.87651 23.0794C6.86406 23.3535 4.53101 23.4193 3.5956 23.2C2.02189 22.8273 0.701303 21.7966 0.239097 20.5577C-1.04848 17.1259 3.5956 15.0208 9.24112 16.4791L10.1655 16.7203L10.7598 16.0624C11.5521 15.1853 12.8287 13.6065 13.478 12.6855C14.0062 11.9399 15.635 9.2318 15.635 9.10023C15.635 9.05638 14.9086 8.99059 14.0172 8.9577C10.9139 8.84806 9.02102 8.15732 8.20665 6.85259C7.76646 6.13993 7.68942 4.99967 8.01957 4.24314C8.29469 3.61819 9.09805 2.75203 9.81337 2.3025C10.9029 1.6008 12.8837 1.14031 12.8837 1.58984C12.8837 1.67755 12.7517 1.77622 12.5866 1.82008C11.0789 2.149 10.3966 2.47793 9.75835 3.19059C9.24112 3.74976 8.96599 4.36375 8.85594 5.12027C8.78992 5.61365 8.82293 5.77811 9.08705 6.30439C9.76935 7.69683 11.7282 8.44239 14.6996 8.44239H15.9431L16.4163 7.59815C18.023 4.65978 19.8609 2.3025 21.3025 1.31573C23.3714 -0.0986334 25.8475 -0.405628 27.3002 0.570176C28.6098 1.4473 28.4777 3.67301 27.0251 5.35052C25.7375 6.83067 22.9202 8.24503 20.279 8.72745L19.3106 8.90288L18.1441 11.2711C16.8785 13.8258 15.8771 15.6787 14.8536 17.3123C14.4905 17.8715 14.2043 18.3758 14.2043 18.4197C14.2043 18.5293 18.4302 20.4152 20.7523 21.3471C23.0963 22.29 26.6509 23.4632 28.6208 23.9456C32.4395 24.8775 35.2127 25.2174 39.0974 25.2174C44.2698 25.2174 48.0224 24.7569 58.169 22.915C68.5576 21.0292 70.8576 20.766 76.4921 20.8647C81.7965 20.9524 85.208 21.4568 88.8507 22.6847C91.3928 23.5399 91.811 23.9456 89.61 23.4193C84.8119 22.2791 80.4759 22.5203 74.0931 24.2855C73.1466 24.5486 71.0777 25.1407 69.504 25.6012C63.1982 27.4431 59.0824 28.2874 54.1522 28.7808C52.1052 28.9891 46.1846 29.0768 44.2477 28.9452ZM4.89418 19.7902C6.23677 19.4394 7.87651 18.5732 9.12006 17.5645C9.70332 17.093 9.6593 17.0602 8.22866 16.7641C6.9631 16.501 5.1693 16.4791 4.15685 16.7093C2.28601 17.1479 1.1415 18.0908 1.3726 19.0227C1.57069 19.8012 3.35349 20.1849 4.89418 19.7902ZM21.0274 7.95997C24.3068 7.06091 26.849 5.10931 27.3552 3.11384C27.5643 2.31346 27.4542 1.66658 27.0581 1.23898C26.7169 0.866206 26.3648 0.745601 25.6715 0.756565C24.1418 0.767529 23.0743 2.05033 20.158 7.37887C19.6077 8.36564 19.5967 8.35467 21.0274 7.95997Z" fill="#5E5E5E"/>
<path d="M35.1141 22.6955C33.1662 22.3885 31.6695 21.2482 31.8566 20.2286C31.9887 19.5488 32.8361 19.2747 33.3313 19.7352C33.7495 20.1299 33.5294 21.0509 33.0121 21.0509C32.671 21.0509 32.77 21.2702 33.2212 21.4566C34.2997 21.9061 36.5447 22.0486 37.9093 21.7636C38.3385 21.6758 39.0869 21.4017 39.5821 21.1496L40.4955 20.7L40.8256 21.0728C41.1338 21.4127 41.1448 21.4456 40.9687 21.5881C40.6386 21.8513 39.472 22.3446 38.7457 22.531C37.9093 22.7503 35.9725 22.838 35.1141 22.6955Z" fill="#5E5E5E"/>
<path d="M43.2247 22.0818C42.0032 21.7858 41.1228 21.1499 40.6606 20.2289C40.4185 19.7245 40.3744 19.5162 40.4185 18.979L40.4625 18.3321L40.0443 18.5514C39.8022 18.6829 39.395 18.8035 39.1419 18.8255C37.9754 18.957 37.227 18.2773 36.3576 16.2708L35.7964 14.9771L35.6093 15.4047C35.5213 15.6459 35.1801 16.4572 34.85 17.2137L34.2667 18.5843L33.3203 18.6171C32.1538 18.65 32.0987 18.5843 32.5169 17.6413C32.8141 16.9506 32.7921 16.9396 32.1208 17.455C30.9872 18.3321 29.4025 18.7268 28.4671 18.3759C27.9059 18.1567 27.2786 17.5317 27.0805 16.9725L26.9374 16.5888L26.2331 17.3344C25.2867 18.3321 24.5824 18.6829 23.647 18.6171C23.0857 18.5733 22.9316 18.5185 22.7115 18.2663C22.5795 18.1018 22.4584 17.8497 22.4584 17.6962V17.4111L21.9082 17.8168C20.5216 18.8255 18.7168 18.9351 18.1225 18.0361C17.9574 17.7948 17.9244 17.5865 17.9684 17.0054C18.0124 16.3805 18.1995 15.8652 19.278 13.3763L20.5326 10.4708L21.6221 10.4379C22.4694 10.416 22.6895 10.4379 22.6455 10.5476C22.6125 10.6243 21.9852 12.0606 21.2589 13.7272C19.9493 16.7204 19.7622 17.3344 20.0594 17.6304C20.3675 17.9374 21.391 17.6194 21.9522 17.0383C22.1503 16.83 22.7446 15.5911 23.614 13.5956L24.9566 10.4708L26.035 10.4379C26.8714 10.416 27.0915 10.4379 27.0475 10.5476C27.0145 10.6243 26.4202 12.0277 25.7269 13.6504C24.2522 17.1151 24.2853 17.0274 24.4393 17.3344C24.7034 17.8168 25.6058 17.3453 26.3982 16.3037C26.7173 15.8761 26.8824 15.5253 27.0145 14.9332C27.4767 12.8281 29.0944 11.0081 31.0093 10.416C32.2198 10.0432 32.9351 10.1638 33.4523 10.8107C34.1016 11.633 33.1332 12.7075 32.2748 12.1045C31.9117 11.8523 31.9337 11.1616 32.3188 10.8655L32.616 10.6353H32.3519C30.7892 10.6353 28.5552 14.8674 29.1824 16.6436C29.4245 17.3563 30.3049 17.5536 31.1743 17.1041C31.7026 16.83 32.8031 15.9858 33.2653 15.4924C33.4523 15.295 34.2447 13.5627 35.4332 10.7449L37.3041 6.30448L38.3495 6.27159C38.9328 6.26063 39.406 6.28255 39.406 6.33737C39.406 6.39219 38.9108 7.60921 38.2945 9.05647C36.8639 12.4334 36.7538 12.7185 36.8529 12.7185C36.8969 12.7185 37.5682 12.2032 38.3385 11.5563L39.7251 10.405L40.2974 10.4379L40.8807 10.4708L39.2299 11.8742C38.3275 12.6527 37.5462 13.3434 37.4911 13.4202C37.4031 13.5517 38.3385 15.5362 38.9218 16.4682C39.307 17.0712 39.8352 17.2795 40.5395 17.1151C41.1448 16.9725 42.4874 16.2379 42.4874 16.0406C42.4874 15.9638 42.2673 14.7688 41.9922 13.3654C41.717 11.9619 41.4969 10.734 41.4969 10.6134C41.4969 10.4379 41.607 10.416 42.5974 10.416C43.3898 10.416 43.7199 10.4599 43.7529 10.5585C43.786 10.6243 43.951 11.6769 44.1381 12.872C44.4463 14.8894 44.5123 15.2402 44.6113 15.1196C44.6333 15.0977 45.1616 14.1657 45.7889 13.0474C47.3405 10.2844 47.2305 10.416 47.8908 10.416C48.2099 10.416 48.43 10.4599 48.43 10.5366C48.43 10.6901 47.4616 12.4224 46.2621 14.4069C45.7558 15.2402 45.3487 15.9309 45.3707 15.9529C45.3927 15.9638 45.6898 16.1064 46.042 16.2599C46.6362 16.523 46.9004 16.7971 46.7353 16.9725C46.6913 17.0054 46.3721 16.8848 46.02 16.6875C45.6678 16.4901 45.3046 16.3366 45.2056 16.3366C45.1176 16.3366 44.9195 16.5449 44.7654 16.8081C44.6113 17.0602 44.1821 17.6742 43.819 18.1786C43.2577 18.9351 43.1037 19.0776 42.8395 19.0776C42.6745 19.0776 42.4434 19.0119 42.3443 18.9461C42.1682 18.8145 42.1792 18.7706 42.5094 18.3759L42.8615 17.9483L42.7405 17.2466C42.6635 16.8519 42.5864 16.512 42.5534 16.4792C42.4324 16.3585 41.706 17.0164 41.4969 17.433C41.2218 17.9703 41.2218 18.2663 41.4859 18.7049C41.8051 19.2311 42.5094 19.4504 43.5328 19.3737C46.207 19.1434 48.6501 17.0383 50.4109 13.4311C50.7081 12.8281 51.3133 11.5563 51.7645 10.6134C53.1181 7.7956 54.2736 5.98652 55.7593 4.39673C56.5627 3.53057 58.1254 2.31356 58.9617 1.90788L59.589 1.60089L59.0388 1.34872C57.8172 0.800511 55.9794 0.800511 54.3397 1.37064C51.5774 2.31356 49.2004 5.08747 49.7506 6.73208C50.0147 7.53246 50.7411 7.75174 51.9076 7.40089C52.854 7.11582 53.3162 7.25836 52.6119 7.62017C52.0396 7.9162 51.1152 8.03681 50.51 7.89427C48.5841 7.43378 48.8372 4.81337 51.0162 2.67537C51.7535 1.95174 52.1277 1.6886 53.0631 1.22811C54.6698 0.427733 55.3191 0.274235 57.1239 0.2852C58.7637 0.2852 59.545 0.438697 60.7115 0.997865C62.9895 2.07235 64.112 4.62698 63.1436 6.53473C62.6264 7.56535 60.9646 8.80429 59.578 9.22093C59.3139 9.29768 59.1048 9.38539 59.1048 9.41828C59.1048 9.45117 59.3579 9.63756 59.6661 9.81299C60.3484 10.2187 61.2618 11.1725 61.6579 11.9071C62.5273 13.5079 62.4833 15.7555 61.5479 17.4878C61.1737 18.1676 60.2053 19.1654 59.501 19.571C58.0813 20.4043 56.2765 20.7113 55.077 20.3275C54.2296 20.0644 53.4593 19.3408 53.2722 18.6391C53.0081 17.6413 53.3933 16.4572 54.1856 15.8542C54.6588 15.4924 55.5502 15.0977 55.6933 15.1854C55.9244 15.3279 55.7703 15.5253 55.143 15.92C54.0866 16.5778 53.7674 17.3124 54.3507 17.7619C54.6148 17.9812 54.7469 18.0032 55.5832 17.9593C56.3536 17.9154 56.6397 17.8497 57.1789 17.5756C58.9727 16.6546 59.9962 15.0209 60.0072 13.0364C60.0182 11.8085 59.7761 11.1945 58.9507 10.3502L58.2794 9.65949L57.7732 9.75817C57.1679 9.87877 56.5076 9.7472 56.2105 9.45117C55.9244 9.16611 56.0344 8.91393 56.5187 8.71658C56.9699 8.51923 57.267 8.51923 57.7842 8.70562C58.3235 8.89201 58.9507 8.67272 59.644 8.04777C60.2713 7.47764 60.6785 6.72112 60.8656 5.72339C61.0967 4.58312 60.8436 3.10297 60.3264 2.41223L60.1173 2.14909L59.2369 3.01526C58.7526 3.49768 58.0813 4.33095 57.7292 4.85722C56.9478 6.05231 55.6493 8.73851 54.0425 12.4444C52.5129 15.9748 52.0176 16.9835 51.2913 18.0251C49.7946 20.185 47.9788 21.6213 46.152 22.0928C45.3817 22.2901 44.0721 22.2901 43.2247 22.0818ZM61.9001 18.3869C61.856 18.2663 64.5632 11.4466 64.9264 10.7669C65.0475 10.5476 65.1355 10.5257 66.0599 10.5257C66.9953 10.5257 67.0504 10.5366 66.9953 10.7449C66.9293 11.0081 67.0614 11.03 67.2594 10.7888C67.4575 10.5476 67.9638 10.3064 68.2829 10.3064C68.9322 10.3064 69.3394 10.734 69.3394 11.4137C69.3394 12.1264 68.404 12.554 67.9087 12.0606C67.6666 11.8194 67.6116 11.1945 67.8207 10.9861C67.9087 10.8984 67.9197 10.8546 67.8317 10.8546C67.5676 10.8546 66.7862 11.9181 66.28 12.9816C65.9829 13.5846 65.3776 15.0319 64.9374 16.1722C64.4862 17.3234 64.079 18.3211 64.024 18.3979C63.8809 18.5843 61.9771 18.5843 61.9001 18.3869ZM69.4934 18.4088C69.0422 18.2773 68.393 17.5646 68.2499 17.0274C67.6886 15.0209 69.3834 11.4795 71.3863 10.5257C72.3657 10.0432 73.5322 10.1419 74.2256 10.7559L74.5997 11.0739L74.7098 10.7449L74.8308 10.416H75.7663C76.3055 10.416 76.7127 10.4599 76.7127 10.5257C76.7127 10.5805 76.1184 12.0606 75.3811 13.8149C74.6548 15.5691 74.0715 17.1041 74.0935 17.2466C74.1705 17.8168 75.249 17.455 76.0744 16.5888C76.2505 16.4024 76.8007 15.1854 77.549 13.3434L78.7376 10.405L79.739 10.4379C80.3223 10.4599 80.7185 10.5147 80.7185 10.5805C80.7075 10.6463 80.6634 10.7998 80.6194 10.9423C80.5534 11.1835 80.5754 11.1725 81.2577 10.8107C83.0295 9.87877 84.5262 10.0871 84.5262 11.2712C84.5262 11.7756 84.3501 12.3018 83.3156 14.9113C82.8864 15.9967 82.5453 16.9945 82.5673 17.126C82.6223 17.5646 83.0845 17.5098 83.8328 16.9616L84.4931 16.4682L84.5592 15.6678C84.7573 13.0364 87.0133 10.2844 89.0932 10.109C89.7865 10.0542 90.3478 10.2187 90.7109 10.5805L90.975 10.8436L91.9215 8.57405L92.8679 6.30448L93.9244 6.27159C94.5076 6.26063 94.9808 6.28255 94.9808 6.33737C94.9808 6.39219 94.0564 8.62887 92.9339 11.3041C90.777 16.4243 90.5128 17.2028 90.821 17.4988C91.0411 17.7291 91.3272 17.6304 91.9105 17.148C92.1526 16.9396 92.4057 16.8081 92.4607 16.841C92.6698 16.9616 92.5488 17.3124 92.1746 17.6413C90.865 18.7816 89.1372 18.8474 88.8071 17.7729L88.675 17.3453L88.1688 17.7291C87.4975 18.2553 87.0353 18.4308 86.375 18.4417C85.7037 18.4417 85.0874 18.0689 84.8123 17.4878C84.6252 17.1041 84.6142 17.0931 84.3831 17.2576C83.3927 17.9703 82.028 18.5294 81.2687 18.5294C81.0156 18.5294 80.7845 18.4308 80.5534 18.2224C79.9261 17.6633 79.9921 17.3782 81.83 12.9049C82.1711 12.0716 82.4242 11.3151 82.3912 11.2274C82.2151 10.7669 81.0596 11.3809 80.3443 12.3128C80.0252 12.7404 79.5629 13.7162 78.7926 15.5801C78.1983 17.0493 77.6371 18.2773 77.56 18.3321C77.494 18.3759 77.0428 18.4198 76.5696 18.4198C75.6012 18.4198 75.5131 18.354 75.7663 17.74L75.9313 17.3453L75.227 17.8277C74.4457 18.343 73.9284 18.5294 73.2351 18.5294C72.7399 18.5294 72.2667 18.2334 72.1456 17.8606C72.0686 17.6523 72.0576 17.6523 71.6834 17.9374C71.2872 18.2444 70.4619 18.5404 70.0657 18.5185C69.9336 18.5185 69.6805 18.4636 69.4934 18.4088ZM71.7054 17.0822C72.2447 16.5888 72.5748 15.9748 73.5102 13.6833C74.1595 12.0826 74.2035 11.633 73.7854 11.3041C73.6203 11.1725 73.3562 11.0739 73.2021 11.0739C71.9035 11.0739 69.7245 14.999 70.0987 16.6765C70.3188 17.6633 70.9241 17.8168 71.7054 17.0822ZM87.7506 17.3234C88.2238 16.9506 88.9832 15.602 89.7425 13.771C90.5348 11.8742 90.6449 11.2822 90.2377 11.0629C89.2913 10.5585 87.5525 12.4663 86.7712 14.8565C86.408 15.9748 86.364 16.9835 86.6611 17.3124C86.9252 17.6085 87.3874 17.6085 87.7506 17.3234Z" fill="#5E5E5E"/>
</g>
<defs>
<clipPath id="clip0_395_1213">
<rect width="95" height="29" fill="white"/>
</clipPath>
</defs>
</svg>
