<svg width="223" height="29" viewBox="0 0 223 29" fill="none" xmlns="http://www.w3.org/2000/svg">
<path fill-rule="evenodd" clip-rule="evenodd" d="M220.768 11.2735L221.628 9.07373H222.459V12.0654H221.918V9.63378H221.904L220.946 12.0654H220.575L219.621 9.63378H219.604V12.0654H219.065V9.07373H219.894L220.768 11.2735ZM218.531 9.50892H217.591V12.0642H217.05V9.50892H216.109V9.07254H218.531V9.50892ZM25.9334 9.17004L26.0547 22.3317H25.9727L18.3127 9.17242H8.71938C9.99209 12.2405 10.6459 15.5298 10.6433 18.8514C10.6433 22.2628 9.96314 25.5256 8.71938 28.5291H15.1902L15.0678 15.3662H15.1486L22.7527 28.5291H32.8858V9.17123L25.9334 9.17004ZM125.309 23.4887C125.309 22.4043 123.353 22.1344 120.146 21.415C115.058 20.2747 109.54 19.151 109.653 14.4245C109.736 11.0309 114.389 8.78953 121.168 8.78953C124.191 8.78953 127.688 9.1415 131.191 10.0809V14.0797C128.075 13.2164 124.627 12.6171 121.216 12.6171C118.86 12.6171 117.473 13.2176 117.473 14.151C117.473 15.1142 119.847 15.3829 122.534 15.912C128.075 17.006 133.259 17.9857 133.259 22.8371C133.259 26.7039 128.515 28.9988 121.169 28.9988C115.765 28.9988 111.882 27.8074 109.416 26.7943V22.5232C113.34 24.4067 118.423 25.1593 121.122 25.1593C123.772 25.1605 125.309 24.5731 125.309 23.4887ZM151.403 9.17004V16.8252H142.573V9.17004H134.98V28.5279H142.573V20.6528H151.403V28.5279H158.998V9.17004H151.403ZM66.3841 24.868V20.1736H78.9096V16.5113H66.3841V12.8312H80.6813V9.17004H58.7883V28.5279H81.1653V24.868H66.3841ZM57.1058 9.17004H34.5945V12.9988H42.063V28.5279H49.6587V12.9988H57.1058V9.17004ZM8.06183 3.57075C8.06183 5.5434 6.25684 7.14388 4.03092 7.14388C1.80262 7.14388 0 5.5434 0 3.57075C0 1.5981 1.80262 0 4.03092 0C6.25684 0 8.06183 1.5981 8.06183 3.57075ZM7.956 9.17004H0.124851V28.5279H0.441141C5.12009 23.3008 7.93936 16.5719 7.95482 9.22949L7.956 9.17004ZM201.873 8.79073H201.866C199.215 8.79073 197.075 8.87397 194.782 9.20452C193.157 9.43758 191.647 9.51487 190.289 9.88467V28.5279H197.883V23.4994C198.892 23.7574 200.719 23.8775 202.252 23.8775C209.86 23.8775 214.51 20.6195 214.51 16.3068C214.509 11.6373 208.892 8.79073 201.873 8.79073ZM200.868 19.8609C199.793 19.8609 198.778 19.7848 197.883 19.503V12.975C198.778 12.6968 199.792 12.6171 200.868 12.6171C204.442 12.6171 206.92 13.6754 206.92 16.1558C206.92 18.2878 204.442 19.8609 200.868 19.8609ZM102.512 22.2271C105.672 21.4625 108.089 18.8502 108.089 16.4649C108.089 10.6183 102.006 8.79073 94.9893 8.79073H94.9798C92.3329 8.79073 89.8097 8.87397 87.5172 9.20452C85.893 9.43758 84.3817 9.49703 83.0262 9.86445V28.5279H90.6195V12.843C91.5137 12.5767 93.0963 12.6183 94.1748 12.6183C97.7467 12.6183 100.501 13.6706 100.501 16.4661C100.501 17.5696 99.6575 18.7206 98.2045 19.3995C96.9667 19.9774 95.2485 20.17 93.6052 20.17C93.3127 20.17 93.0262 20.1582 92.7443 20.1379L99.6968 28.5291H108.156L102.512 22.2271ZM174.643 8.79073C165.347 8.79073 161.113 13.5434 161.099 18.5434V18.5731C161.099 22.7562 163.725 27.3211 169.496 27.3211C172.083 27.3222 174.594 26.441 176.614 24.8228L176.681 24.7669C176.087 24.9394 175.409 25.0345 174.635 25.0345C169.605 25.0345 168.566 21.0071 168.566 18.8086C168.566 16.6112 169.604 12.6171 174.635 12.6171C179.669 12.6171 180.705 16.6112 180.705 18.8086V18.8276C180.698 21.8728 178.905 26.9929 171.168 28.7301C172.235 28.9061 173.392 29 174.642 29C183.948 29 188.187 23.5731 188.187 18.566C188.187 13.5589 183.949 8.79073 174.643 8.79073Z" fill="#5E5E5E"/>
</svg>
