<svg width="153" height="29" viewBox="0 0 153 29" fill="none" xmlns="http://www.w3.org/2000/svg">
<path fill-rule="evenodd" clip-rule="evenodd" d="M11.2717 18.3159C13.2806 17.9729 20.6799 16.3557 20.6799 11.0636C20.6799 7.63256 17.2992 5.91702 14.554 5.91702C9.31153 5.91702 0 11.3082 0 20.9132C0 26.3052 3.72445 29 7.40014 29C12.7402 29 17.5926 23.1683 17.5926 22.3353C17.5926 22.0891 17.4943 21.8445 17.2001 21.8445C16.9555 21.8445 16.8571 21.9428 15.7787 23.0204C12.6922 26.011 10.2908 26.1565 9.40905 26.1565C8.47855 26.1565 5.2929 25.7152 5.2929 20.9123C5.2929 20.619 5.2929 20.276 5.39042 19.3935L11.2717 18.3159ZM4.86625 18.0696C6.04217 12.4842 9.42368 7.04419 13.0506 7.04419C15.4025 7.04419 15.4025 9.34729 15.4025 9.78857C15.4025 16.3557 8.24775 17.6796 4.86625 18.0696ZM29.4437 21.1147C29.6599 21.1147 29.9622 21.1147 30.1361 20.9416C30.3092 20.7254 30.6985 19.5146 30.7846 19.2992C30.8277 19.1692 31.26 18.0453 31.26 17.8722C31.26 17.569 30.7846 17.6137 30.5676 17.6137H22.9578C22.0932 17.6137 21.8339 17.4406 21.4869 18.2614L21.0123 19.43C20.8823 19.7332 20.493 20.5109 20.493 20.8571C20.493 21.3317 21.4869 21.1602 21.7461 21.1602H28.6221L29.4437 21.1147ZM56.7038 0L49.033 3.93168L39.8345 23.1447L38.3741 7.99745L34.0808 9.88202L36.3563 28.2995H42.1067L56.7038 0ZM44.9632 28.2995H50.0139L52.0903 24.5758H58.13L58.6054 28.2995H63.3051L60.4559 10.8483H54.6047L44.9632 28.2995ZM57.6798 21.2748H53.1793L56.8793 14.4484H56.9297L57.6798 21.2748ZM63.7935 28.2995H68.1941L70.6199 16.2241H70.6695L74.32 28.2995H80.1192L83.8209 10.8483H79.4203L76.9701 22.9489H76.9189L73.3448 10.8483H67.5188L63.7935 28.2995ZM86.5059 28.2995H91.2316L94.2059 14.2989H98.5561L99.307 10.8483H85.881L85.1317 14.2989H89.4803L86.5059 28.2995ZM93.3949 28.2995H98.4456L100.52 24.5758H107.296L107.771 28.2995H112.471L109.621 10.8483H103.771L93.3949 28.2995ZM106.845 21.2748H102.346L106.046 14.4484H106.096L106.845 21.2748ZM130.926 11.3985C129.025 10.8979 127.226 10.5476 125.101 10.5476C117 10.5476 113.525 14.6735 113.525 20.4743C113.525 25.2739 116.749 28.5994 122.375 28.5994C123.875 28.5994 126.701 28.3499 128.451 27.8265L130.527 18.0981H123.2L122.526 21.3983H125.302L124.526 24.8505C123.875 25.0488 123.275 25.1504 122.677 25.1504C120.301 25.1504 118.326 23.6998 118.326 20.5995C118.326 17.2984 120.201 13.9982 124.877 13.9982C126.902 13.9982 128.402 14.272 129.926 14.9466L130.926 11.3985ZM130.771 28.2995H143.397L144.072 25.0017H136.098L136.947 21.0497H144.197L144.923 17.7494H137.647L138.448 14.1485H146.123L146.799 10.8483H134.521L130.771 28.2995ZM146.69 28.4027H147.309V25.8046H148.191V25.3186H145.805V25.8046H146.69V28.4027ZM148.585 28.4027H149.176V25.868L149.186 25.8574L150.017 28.4027H150.607L151.439 25.8574H151.448V28.4027H152.04V25.3186H151.05L150.318 27.6567H150.308L149.575 25.3186H148.585V28.4027Z" fill="#5E5E5E"/>
</svg>
