<svg width="171" height="29" viewBox="0 0 171 29" fill="none" xmlns="http://www.w3.org/2000/svg">
<g clip-path="url(#clip0_395_1200)">
<path d="M0 9.85789L19.0934 28.9954L38.1868 9.85789L29.4302 1.06931L26.4023 1.09662V0.359359L12.5006 0.347656L12.5201 1.06151L8.75277 1.07711L0 9.85789ZM119.6 27.7003C123.57 27.7003 126.73 22.9803 126.73 18.3539C126.73 15.5921 125.991 13.3842 124.539 11.4338C123.57 10.1583 121.795 8.9685 120.021 8.9685C118.954 8.9685 117.374 9.30787 115.697 11.0047C113.948 12.8542 112.958 15.2952 112.922 17.8429C112.922 20.8582 113.214 22.4303 114.697 24.763C116.055 26.8889 118.055 27.7003 119.6 27.7003ZM70.1544 19.333V12.9005C70.1544 11.7654 70.1194 10.798 69.3761 9.9164C68.8818 9.36638 68.2085 8.78126 66.5428 8.78126C64.9472 8.78126 63.7095 9.19865 62.2229 10.2519C60.7712 11.2622 59.7788 12.8576 59.7788 14.2034C59.7788 15.1708 60.0629 15.5531 60.6272 15.5531C62.0789 15.5531 62.5031 14.6286 62.5031 13.1541C62.5031 12.3973 62.1839 11.7654 62.6782 11.2193C63.1725 10.6693 64.2739 10.3338 64.9822 10.3338C66.0096 10.3338 66.7179 10.7122 67.1071 11.2583C67.4963 11.8044 67.5313 12.8966 67.6014 13.6144V16.3021C67.0332 16.8911 65.1923 17.9014 63.6006 18.744C60.8023 20.2146 60.059 21.8959 60.059 23.8307C60.059 26.4793 61.3355 27.3258 62.1839 27.3258C62.9623 27.3258 63.6006 27.3258 64.2739 27.0762C65.8695 26.4364 67.0371 25.5548 67.7804 24.5055H67.8544C68.1735 26.2258 69.092 27.3297 70.3685 27.3297C72.1743 27.3297 72.8476 25.8942 73.1317 25.2623C73.3458 24.8449 73.2757 24.6342 73.1667 24.5094L72.8126 24.17C72.6686 24.0452 72.5985 24.1271 72.4584 24.3417C72.3159 24.5365 72.1295 24.6949 71.9145 24.804C71.6995 24.9131 71.4618 24.9699 71.2208 24.9697C70.5825 24.9697 70.1583 24.213 70.1583 21.8139V19.333H70.1544ZM161.348 16.4776C161.146 15.7716 160.262 12.3349 160.262 11.5938C160.262 11.0515 160.535 10.8058 160.873 10.8058H161.554C161.757 10.8058 161.792 10.642 161.792 10.3962V9.64724C161.792 9.40149 161.722 9.31567 161.453 9.31567C161.08 9.31567 160.196 9.4405 158.394 9.4405C156.491 9.4405 155.915 9.31567 155.542 9.31567C155.23 9.31567 155.16 9.35858 155.16 9.64724V10.3923C155.16 10.6381 155.195 10.8019 155.363 10.8019H156.048C156.659 10.8019 156.997 11.1335 157.437 12.3349C157.678 12.9981 159.068 17.7181 159.169 18.0496L161.819 26.452C161.99 26.9552 162.197 27.3297 162.535 27.3297C162.909 27.3297 163.08 26.9552 163.349 26.3701C163.485 26.0815 165.999 19.1302 166.408 17.8819C166.917 16.3489 168.614 11.8395 169.124 11.2622C169.432 10.8877 169.77 10.8058 170.179 10.8058H170.825C170.996 10.8058 170.996 10.6849 170.996 10.3962V9.68625C170.996 9.35468 170.961 9.31177 170.689 9.31177C170.385 9.31177 169.568 9.4366 168.245 9.4366C166.75 9.4366 166.003 9.31177 165.524 9.31177C165.388 9.31177 165.322 9.39369 165.322 9.64334V10.3884C165.322 10.5951 165.357 10.798 165.458 10.798H166.135C166.746 10.798 166.984 11.4611 166.746 12.5807C166.408 14.1956 164.03 21.2756 163.485 22.8867H163.384C163.014 22.0246 161.554 17.2656 161.348 16.4776ZM149.895 17.3163C149.895 15.4088 149.922 13.4193 149.98 11.5118H153.701C153.872 11.5118 153.93 11.3909 153.958 11.1803L154.246 9.72916C154.304 9.56532 154.218 9.35468 154.043 9.35468H150.035L150.179 5.251C150.179 4.91943 150.12 4.63077 149.891 4.63077C149.715 4.63077 149.571 4.71269 149.486 5.04426C149.112 6.45246 146.89 9.68625 146.201 10.2675C145.855 10.5561 145.68 10.681 145.68 11.0125C145.68 11.3441 145.855 11.5079 146.112 11.5079H147.871C147.84 13.2477 147.812 16.0251 147.812 16.7741V17.6869C147.812 18.2642 147.727 21.9154 147.727 23.6161C147.727 25.1882 149.108 27.1464 150.521 27.1464C152.253 27.1464 153.432 25.8942 153.72 25.4768C153.806 25.3559 153.864 25.1882 153.779 25.0243L153.635 24.6498C153.549 24.4821 153.432 24.4392 153.288 24.5679C152.883 24.9424 152.047 25.1101 151.385 25.1101C150.867 25.1101 149.887 24.5679 149.887 21.459V17.3163H149.895ZM141.648 13.6144C141.648 12.5456 140.85 10.3962 139.892 9.53802C139.136 8.89841 138.169 8.56215 137.18 8.59402C135.584 8.59402 133.732 10.1817 132.805 11.7303H132.743L132.517 9.10893C132.486 8.76565 132.424 8.59402 132.264 8.59402C132.136 8.59402 131.945 8.72274 131.688 8.89438L128.941 10.954C128.781 11.0359 128.653 11.1686 128.653 11.3792V11.5977C128.653 11.7264 128.684 11.8512 128.91 11.9838L129.163 12.1555C129.96 12.6704 130.47 13.3998 130.47 14.6871V24.7357C130.47 26.3818 128.567 26.7641 128.587 26.7524C128.598 26.7485 128.649 27.1503 128.808 27.1503C128.999 27.1503 130.023 27.0216 131.65 27.0216C133.342 27.0216 134.203 27.1503 134.428 27.1503C134.588 27.1503 134.666 26.7719 134.654 26.7524C134.646 26.7446 132.77 26.4988 132.77 24.1778V15.2917C132.77 14.4765 132.868 13.3179 133.506 12.3739C134.463 10.9969 135.58 10.6966 136.094 10.6966C136.892 10.6966 137.659 10.6966 138.425 11.4689C139.352 12.37 139.352 13.6144 139.352 15.3308V20.9948C139.352 22.1104 139.32 23.4874 139.289 24.603C139.211 26.4364 137.308 26.6432 137.308 26.6627C137.308 26.6627 137.374 27.1425 137.561 27.1425C137.787 27.1425 138.807 27.0138 140.433 27.0138C142.255 27.0138 143.243 27.1425 143.465 27.1425C143.656 27.1425 143.745 26.6744 143.722 26.6627C143.71 26.6549 141.644 26.573 141.644 24.685L141.648 13.6144Z" fill="#5E5E5E"/>
<path d="M120.017 26.2415C118.658 26.2415 117.822 25.4497 117.156 24.0688C116.234 22.1457 116.059 20.558 116.059 18.2136C116.059 15.0384 116.463 13.322 117.588 11.6485C118.285 10.5641 119.032 10.3105 119.81 10.3105C121.285 10.3105 123.62 13.2362 123.62 17.8743C123.628 22.3524 122.212 26.2415 120.017 26.2415Z" fill="white"/>
<path d="M107.03 4.04557C108.388 4.04557 108.999 2.91823 108.999 1.90791C108.999 1.04973 108.423 0.00430679 107.232 0.00430679C106.962 -0.00573751 106.693 0.0392468 106.441 0.136536C106.188 0.233825 105.959 0.381394 105.765 0.570307C105.571 0.75922 105.418 0.985547 105.314 1.23558C105.211 1.48562 105.159 1.75416 105.161 2.02494C105.161 3.2693 106.282 4.04557 107.03 4.04557ZM106.041 21.0181C106.041 22.2664 106.041 23.5575 106.01 24.8097C105.916 26.8381 103.694 26.8108 103.698 26.8069C103.71 26.7991 103.792 27.1502 103.943 27.1502C104.282 27.1502 105.484 27.0254 107.271 27.0254C108.563 27.0254 109.98 27.1502 110.229 27.1502C110.447 27.1502 110.505 26.7328 110.505 26.725C110.505 26.725 108.469 26.881 108.287 24.5601C108.255 24.1037 108.255 22.6018 108.255 20.9791V16.4385C108.255 12.9785 108.255 10.3571 108.318 9.65107C108.349 9.35851 108.318 9.15176 108.162 9.15176C107.975 9.15176 107.823 9.23368 107.578 9.39751C106.531 10.1741 105.418 10.8568 104.251 11.4376C104.099 11.5196 104.037 11.6054 104.037 11.7263V12.1047C104.037 12.2685 104.099 12.3504 104.313 12.3934C105.854 12.7288 106.037 13.4739 106.037 14.8938L106.041 21.0181ZM88.5783 18.2485C88.5783 20.6241 88.5783 24.6498 88.4849 25.3402C88.3058 26.6197 86.3638 26.8771 86.3521 26.8771C86.3249 26.881 86.4416 27.2516 86.5701 27.2516C86.8464 27.2516 88.0256 27.1424 89.5707 27.1424C90.9951 27.1424 92.2638 27.2516 92.509 27.2516C92.6958 27.2516 92.762 26.8927 92.7542 26.8459C92.7542 26.8264 90.8044 26.803 90.8044 24.4313V16.4541C90.8612 15.5601 91.2529 14.7205 91.9009 14.1036C92.5489 13.4866 93.4056 13.1377 94.2993 13.1267C95.0738 13.1267 95.7237 13.4544 96.3425 14.1487C97.2376 15.1356 97.3622 16.5984 97.3622 18.6464V21.611C97.3622 22.7813 97.3933 24.72 97.3622 25.231C97.296 26.6392 95.2722 26.8342 95.2645 26.842C95.2489 26.8498 95.3267 27.2477 95.5408 27.2477C95.8171 27.2477 96.9341 27.1385 98.4519 27.1385C100.215 27.1385 101.207 27.2477 101.421 27.2477C101.608 27.2477 101.667 26.8108 101.667 26.803C101.667 26.7952 99.6545 26.5027 99.6545 25.3792C99.6545 24.681 99.5922 22.4146 99.5922 20.3706V18.2836C99.5922 16.3098 99.6545 14.4452 98.2612 12.9083C97.3933 11.9214 96.4982 11.4455 95.1983 11.4455C93.8362 11.4455 92.042 12.288 90.9601 13.8211H90.8044V11.4806C90.8044 9.65107 90.8355 2.22778 90.8978 1.60755C90.9601 0.987317 90.8355 0.694754 90.6487 0.694754C90.4035 0.694754 90.1856 0.839085 89.9365 0.987317L86.718 3.00015C86.4378 3.18349 86.3482 3.21859 86.3482 3.36683V3.6945C86.3482 3.80372 86.3794 3.84273 86.5662 3.91684L87.0916 4.13529C88.2047 4.57608 88.5783 4.97787 88.5783 7.20915V18.2485Z" fill="#5E5E5E"/>
<path d="M67.8386 22.6725C67.8386 23.8154 65.8771 25.2977 64.8029 25.2977C63.6938 25.2977 62.8804 24.5371 62.8804 22.9689C62.8804 19.4543 66.5076 18.6078 67.8386 17.4648V22.6725Z" fill="white"/>
<path d="M49.5199 18.5648V25.5356C49.4849 26.3899 49.3565 26.8346 48.7416 26.8346H47.1848C46.928 26.8346 46.8618 26.9087 46.8618 27.0921V27.9073C46.8618 28.0985 46.928 28.1726 47.1187 28.1726C47.3794 28.1726 49.0335 28.0595 50.8159 28.0595C53.3145 28.0595 54.5132 28.1726 54.7078 28.1726C54.8712 28.1726 54.9374 28.0166 54.9374 27.7201V27.1272C54.9374 26.9048 54.8712 26.8346 54.5793 26.8346H52.7307C52.0496 26.8346 51.9446 26.4991 51.8901 25.8711C51.8512 25.4654 51.8551 22.0522 51.8551 17.6715V13.6888H54.3536L55.5601 13.6654C55.817 13.6576 55.9415 13.5601 55.961 13.4118L56.0077 12.9671C56.0232 12.8189 56.0077 12.5966 55.7819 12.5966H51.8551V11.8554C51.8551 9.26135 51.7889 6.03536 52.9915 4.29559C53.2469 3.88354 53.6063 3.5464 54.0334 3.31831C54.4606 3.09021 54.9402 2.97923 55.4239 2.99661C56.0388 2.99661 56.4941 3.25407 56.9145 3.8509C57.1275 4.1749 57.3902 4.46321 57.6928 4.70518C57.9536 4.85341 58.2766 4.92753 58.5996 4.92753C59.1172 4.92753 59.9618 4.22147 59.9618 3.33599C59.9618 1.92778 58.5335 1.26074 57.0118 1.26074C55.1943 1.26074 53.4118 2.03701 51.6916 4.19027C50.4267 5.82082 49.5199 8.23153 49.5199 11.9022V12.6083H47.6363C47.3755 12.6083 47.286 12.6473 47.2471 12.8657L47.1342 13.5016C47.1342 13.5094 47.1226 13.7239 47.2588 13.7239H49.5199V18.5648Z" fill="#5E5E5E"/>
<path d="M18.0425 15.4321V20.2457C18.0192 20.8348 17.9297 21.1429 17.5054 21.1429H16.4313C16.2523 21.1429 16.2056 21.1936 16.2056 21.3224V21.888C16.2056 22.0206 16.2523 22.0713 16.3846 22.0713C16.5636 22.0713 17.7078 21.9933 18.9415 21.9933C20.6656 21.9933 21.4946 22.0713 21.6308 22.0713C21.7398 22.0713 21.7865 21.966 21.7865 21.7593V21.3497C21.7865 21.1936 21.7398 21.1429 21.5413 21.1429H20.2609C19.79 21.1429 19.7238 20.9128 19.681 20.4759C19.6576 20.195 19.6576 17.8389 19.6576 14.8158V12.5377H22.1212C22.3002 12.5377 22.3897 12.5104 22.4131 12.409L22.5259 11.5625C22.5493 11.4611 22.5259 11.3089 22.3664 11.3089H19.6576V10.794C19.6576 9.00354 19.6109 6.77227 20.4438 5.57081C20.6204 5.28613 20.8689 5.05323 21.1641 4.89569C21.4593 4.73815 21.7908 4.66154 22.1251 4.67362C22.5493 4.67362 22.8645 4.85306 23.1564 5.26265C23.3034 5.48609 23.4846 5.68488 23.6935 5.85167C23.8845 5.95529 24.099 6.00769 24.3162 6.0038C24.6742 6.0038 25.258 5.5162 25.258 4.90377C25.258 3.92856 24.2734 3.46826 23.2187 3.46826C21.9616 3.46826 20.7318 4.01048 19.5448 5.49279C18.6691 6.61623 18.0425 8.28579 18.0425 10.8174V11.305H16.7426C16.5636 11.305 16.4975 11.3323 16.4741 11.4845L16.3846 12.2568C16.3418 12.487 16.3846 12.5377 16.4975 12.5377H18.0425V15.4321ZM25.7795 13.2828C26.698 13.2828 27.1105 12.5182 27.1105 11.8355C27.1105 11.2582 26.7213 10.5444 25.9157 10.5444C25.7328 10.5375 25.5505 10.5679 25.3797 10.6338C25.2089 10.6998 25.0533 10.7998 24.9223 10.9278C24.7912 11.0559 24.6875 11.2093 24.6175 11.3787C24.5474 11.5482 24.5124 11.7302 24.5147 11.9136C24.5147 12.76 25.2736 13.2828 25.7795 13.2828Z" fill="white"/>
<path d="M83.9823 8.79291C83.885 9.44045 83.7838 9.58478 83.3557 9.58478C83.1066 9.56047 82.8625 9.49866 82.6318 9.40144C81.2502 8.97235 80.4601 8.75391 79.8335 8.75391C77.4323 8.75391 75.3618 11.0593 75.3618 13.7236C75.3618 15.0577 75.9222 16.4229 76.8407 17.2889C77.4673 17.8624 78.0238 18.2992 79.8024 19.4851C81.3163 20.4564 81.6471 20.7061 82.1375 21.2483C82.4333 21.572 82.6629 21.8217 82.7641 22.1455C82.9276 22.5434 83.0599 23.0817 83.0599 23.5849C83.0599 25.0984 81.9741 26.2179 80.4952 26.2179C79.4093 26.2179 78.3585 25.6757 77.5023 24.8448C76.58 23.8735 76.218 22.9763 75.8561 20.8114H75.5292V26.9786H75.8249C75.9884 26.5027 76.1207 26.3974 76.4165 26.3974C76.615 26.3974 76.9769 26.4715 77.2377 26.5417C77.3038 26.5768 77.5996 26.6821 78.0939 26.8265C79.0163 27.0839 79.8374 27.2322 80.6275 27.2322C83.2934 27.2322 85.43 25.0321 85.43 22.3639C85.43 21.4277 84.9669 20.0936 84.3092 19.1964C83.7487 18.3305 82.7291 17.4684 81.149 16.5283L79.4444 15.4906C78.0277 14.6247 77.2727 13.5831 77.2727 12.4285C77.2727 10.915 78.3936 9.83444 79.9036 9.83444C81.1879 9.83444 82.3049 10.3767 82.9626 11.348C83.5542 12.0696 83.7526 12.7172 84.0834 14.3399H84.4454V8.79291H83.9823Z" fill="#5E5E5E"/>
</g>
<defs>
<clipPath id="clip0_395_1200">
<rect width="171" height="29" fill="white"/>
</clipPath>
</defs>
</svg>
