<svg width="472" height="472" viewBox="0 0 472 472" fill="none" xmlns="http://www.w3.org/2000/svg">
  <g opacity="0.05" clip-path="url(#clip0_395_1869)">
  <path d="M129.633 98.2022C122.948 90.7289 116.525 83.5178 110.103 76.4378C103.418 68.9644 96.8642 61.4911 90.0483 54.1489C86.7714 50.6089 85.985 47.0689 87.82 42.48C92.6698 30.68 97.5196 18.88 102.107 6.94889C104.073 1.96667 107.219 0 112.593 0C147.852 0.131111 182.98 0.131111 218.239 0C223.613 0 226.628 2.09778 228.594 7.08C233.051 18.88 237.77 30.5489 242.619 42.0867C244.585 46.8067 243.799 50.4778 240.391 54.1489C228.332 67.26 216.404 80.6333 204.477 94.0067C203.428 95.1867 202.379 96.4978 200.938 98.2022C205.394 99.5133 209.457 100.431 213.39 101.742C238.687 109.609 260.839 122.72 279.976 141.076C281.286 142.387 283.646 143.304 285.35 143.173C343.678 136.749 392.569 155.236 431.367 199.027C460.334 231.804 473.18 270.744 471.607 314.404C468.985 389.793 411.575 456.267 337.386 469.116C281.68 478.818 233.051 464.133 191.762 425.456C190.452 424.276 188.092 423.227 186.388 423.489C112.2 433.322 40.1089 391.498 12.0589 322.009C-25.6906 228.264 28.1811 123.244 126.356 99.2511C127.274 99.12 128.191 98.5956 129.633 98.2022ZM176.689 408.936C173.543 404.347 170.397 400.938 168.693 397.004C164.761 387.958 158.338 385.204 148.508 384.024C80.3488 375.371 32.6376 313.749 40.2399 245.178C48.2355 172.673 117.443 122.064 189.141 136.093C241.702 146.32 281.68 188.276 289.937 241.769C297.802 293.164 270.931 346.002 224.269 370.913C222.696 371.7 221.254 372.618 219.026 373.798C224.007 378.911 228.594 383.5 232.92 388.351C235.279 390.842 237.245 390.711 240.129 389.007C297.54 356.491 326.9 287.396 310.254 223.413C290.724 147.762 219.419 100.562 141.954 112.1C58.7215 124.424 1.44181 205.976 18.2194 288.444C31.9822 355.967 87.689 404.609 156.503 408.936C162.795 409.329 169.349 408.936 176.689 408.936ZM253.236 192.864C248.387 187.751 243.93 183.293 239.605 178.573C237.114 175.82 234.886 175.82 231.609 177.787C177.999 208.598 148.639 271.662 159.518 332.629C173.936 413.131 248.255 466.493 329.522 454.562C409.084 442.893 465.971 367.242 455.091 287.658C444.474 210.696 379.461 155.498 301.865 157.596C300.03 157.596 298.195 157.858 295.573 157.989C298.195 161.66 300.685 164.413 302.127 167.691C306.715 177.656 313.269 184.08 325.196 182.638C325.852 182.507 326.507 182.9 327.162 183.031C394.928 193.651 442.377 258.682 431.498 326.073C420.619 393.202 361.242 438.96 293.738 432.142C210.637 423.751 158.731 336.956 190.583 259.469C202.773 229.576 223.613 207.811 253.236 192.864ZM152.702 368.684C126.225 284.249 148.901 216.464 220.599 164.938C188.223 144.091 137.497 142.78 99.4857 171.231C61.0808 199.944 45.3518 249.636 60.6876 294.738C77.0719 343.511 121.113 366.849 152.702 368.684ZM251.532 401.593C284.17 422.571 335.944 424.144 374.611 393.858C413.803 363.178 427.828 310.996 409.084 265.369C393.748 227.871 349.183 194.7 319.429 197.978C345.775 282.151 323.361 349.804 251.532 401.593ZM210.768 359.769C274.602 330.138 290.593 253.962 261.101 206.893C200.938 234.558 180.359 307.587 210.768 359.769ZM192.811 16.1267C174.198 16.1267 156.241 16.1267 137.76 16.1267C140.643 23.3378 143.265 30.1556 146.148 36.8422C146.673 38.0222 148.77 39.2022 150.081 39.2022C160.173 39.4644 170.397 39.4644 180.49 39.2022C181.801 39.2022 183.898 38.0222 184.422 36.8422C187.306 30.1556 189.927 23.3378 192.811 16.1267ZM152.309 55.3289C156.372 68.7022 160.304 81.6822 164.237 94.7933C164.892 94.7933 165.678 94.7933 166.334 94.7933C170.266 81.8133 174.198 68.7022 178.262 55.3289C169.48 55.3289 161.353 55.3289 152.309 55.3289ZM112.2 55.3289C123.866 68.3089 134.876 80.5022 145.755 92.6955C146.148 92.5644 146.41 92.3022 146.804 92.1711C143.134 79.9778 139.463 67.6533 135.793 55.46C128.191 55.3289 120.851 55.3289 112.2 55.3289ZM218.37 55.1978C210.375 55.1978 203.559 55.0667 196.743 55.3289C195.695 55.3289 194.122 57.2956 193.597 58.7378C191.107 66.4733 188.748 74.34 186.519 82.2067C185.471 85.4844 184.553 88.7622 183.636 92.1711C184.029 92.3022 184.291 92.4333 184.684 92.6955C195.695 80.3711 206.705 68.1778 218.37 55.1978ZM129.895 39.2022C126.88 31.7289 124.128 24.3867 121.113 17.3067C120.064 14.9467 116.001 15.0778 114.953 17.4378C111.938 24.5178 109.185 31.7289 106.171 39.2022C114.428 39.2022 121.899 39.2022 129.895 39.2022ZM200.675 39.0711C208.802 39.0711 216.273 39.0711 224.269 39.0711C221.385 31.86 218.764 25.0422 215.88 18.3556C215.356 17.1756 213.652 15.9956 212.472 15.9956C211.292 15.9956 209.457 17.1756 209.064 18.3556C206.18 25.0422 203.559 31.86 200.675 39.0711Z" fill="currentColor"/>
  </g>
  <defs>
  <clipPath id="clip0_395_1869">
  <rect width="472" height="472" fill="white"/>
  </clipPath>
  </defs>
</svg>