<svg width="115" height="28" viewBox="0 0 115 28" fill="none" xmlns="http://www.w3.org/2000/svg">
<path d="M8.764 21.28C7.17733 21.28 5.628 20.9907 4.116 20.412C2.604 19.8147 1.26 18.9747 0.084 17.892L2.408 14.98C3.54667 15.988 4.63867 16.716 5.684 17.164C6.748 17.612 7.868 17.836 9.044 17.836C9.86533 17.836 10.5747 17.7427 11.172 17.556C11.7693 17.3507 12.2267 17.0613 12.544 16.688C12.88 16.3147 13.048 15.876 13.048 15.372C13.048 14.7 12.8053 14.1867 12.32 13.832C11.8347 13.4587 11.004 13.1693 9.828 12.964L5.936 12.292C4.27467 12.012 3.00533 11.424 2.128 10.528C1.26933 9.632 0.84 8.47467 0.84 7.056C0.84 5.84267 1.148 4.788 1.764 3.892C2.39867 2.996 3.28533 2.31467 4.424 1.848C5.58133 1.36267 6.95333 1.12 8.54 1.12C9.97733 1.12 11.4053 1.36267 12.824 1.848C14.2613 2.33333 15.5307 3.00533 16.632 3.864L14.448 6.888C12.3947 5.32 10.332 4.536 8.26 4.536C7.532 4.536 6.89733 4.62933 6.356 4.816C5.81467 5.00267 5.39467 5.264 5.096 5.6C4.816 5.91733 4.676 6.3 4.676 6.748C4.676 7.34533 4.89067 7.812 5.32 8.148C5.74933 8.46533 6.468 8.708 7.476 8.876L11.172 9.492C13.132 9.80933 14.5973 10.4347 15.568 11.368C16.5387 12.2827 17.024 13.496 17.024 15.008C17.024 16.2773 16.688 17.388 16.016 18.34C15.344 19.2733 14.3827 20.0013 13.132 20.524C11.9 21.028 10.444 21.28 8.764 21.28ZM24.2342 21.252C23.1889 21.252 22.2649 21.0653 21.4622 20.692C20.6596 20.3 20.0342 19.768 19.5862 19.096C19.1382 18.424 18.9142 17.6493 18.9142 16.772C18.9142 15.372 19.4369 14.2893 20.4822 13.524C21.5462 12.74 23.0022 12.348 24.8502 12.348C26.1196 12.348 27.3142 12.544 28.4342 12.936V11.872C28.4342 11.032 28.1729 10.3973 27.6502 9.968C27.1276 9.53867 26.3622 9.324 25.3542 9.324C24.7382 9.324 24.0756 9.42667 23.3662 9.632C22.6569 9.81867 21.8356 10.1173 20.9022 10.528L19.5022 7.7C20.6596 7.17733 21.7609 6.78533 22.8062 6.524C23.8702 6.26267 24.9342 6.132 25.9982 6.132C27.9582 6.132 29.4796 6.608 30.5622 7.56C31.6636 8.49333 32.2142 9.81867 32.2142 11.536V21H28.4342V19.964C27.8369 20.412 27.1929 20.7387 26.5022 20.944C25.8116 21.1493 25.0556 21.252 24.2342 21.252ZM22.5542 16.688C22.5542 17.248 22.7969 17.696 23.2822 18.032C23.7676 18.3493 24.4116 18.508 25.2142 18.508C25.8489 18.508 26.4369 18.4333 26.9782 18.284C27.5196 18.116 28.0049 17.8733 28.4342 17.556V15.428C27.9676 15.2413 27.4822 15.1013 26.9782 15.008C26.4742 14.9147 25.9329 14.868 25.3542 14.868C24.4769 14.868 23.7862 15.036 23.2822 15.372C22.7969 15.6893 22.5542 16.128 22.5542 16.688ZM41.6233 21.224C39.9993 21.224 38.7673 20.86 37.9273 20.132C37.106 19.3853 36.6953 18.3027 36.6953 16.884V9.604H33.6993V6.412H36.6953V2.688L40.5313 1.82V6.412H44.7033V9.604H40.5313V16.1C40.5313 16.772 40.6806 17.2573 40.9793 17.556C41.278 17.836 41.8006 17.976 42.5473 17.976C42.9206 17.976 43.2566 17.9573 43.5553 17.92C43.8726 17.864 44.218 17.7707 44.5913 17.64V20.804C44.1993 20.9347 43.7046 21.0373 43.1073 21.112C42.5286 21.1867 42.034 21.224 41.6233 21.224ZM53.7639 21.224C52.1399 21.224 50.9079 20.86 50.0679 20.132C49.2466 19.3853 48.8359 18.3027 48.8359 16.884V9.604H45.8399V6.412H48.8359V2.688L52.6719 1.82V6.412H56.8439V9.604H52.6719V16.1C52.6719 16.772 52.8213 17.2573 53.1199 17.556C53.4186 17.836 53.9413 17.976 54.6879 17.976C55.0613 17.976 55.3973 17.9573 55.6959 17.92C56.0133 17.864 56.3586 17.7707 56.7319 17.64V20.804C56.3399 20.9347 55.8453 21.0373 55.2479 21.112C54.6693 21.1867 54.1746 21.224 53.7639 21.224ZM58.7151 21V6.412H62.5511V21H58.7151ZM60.6191 4.676C60.0218 4.676 59.5085 4.46133 59.0791 4.032C58.6498 3.60267 58.4351 3.08933 58.4351 2.492C58.4351 1.876 58.6498 1.36267 59.0791 0.951999C59.5085 0.522666 60.0218 0.307999 60.6191 0.307999C61.2351 0.307999 61.7485 0.522666 62.1591 0.951999C62.5885 1.36267 62.8031 1.876 62.8031 2.492C62.8031 3.08933 62.5885 3.60267 62.1591 4.032C61.7485 4.46133 61.2351 4.676 60.6191 4.676ZM66.9791 27.02C66.6431 27.02 66.3164 27.0013 65.9991 26.964C65.7004 26.9453 65.4484 26.9173 65.2431 26.88V23.576C65.6164 23.6507 66.0644 23.688 66.5871 23.688C67.9871 23.688 68.9577 23.0253 69.4991 21.7L69.7231 21.14L64.0391 6.412H68.2671L71.9071 16.352L76.0231 6.412H80.1671L73.4471 22.176C72.9431 23.352 72.3924 24.2947 71.7951 25.004C71.1977 25.7133 70.5071 26.2267 69.7231 26.544C68.9577 26.8613 68.0431 27.02 66.9791 27.02ZM85.9491 21.252C84.9037 21.252 83.9797 21.0653 83.1771 20.692C82.3744 20.3 81.7491 19.768 81.3011 19.096C80.8531 18.424 80.6291 17.6493 80.6291 16.772C80.6291 15.372 81.1517 14.2893 82.1971 13.524C83.2611 12.74 84.7171 12.348 86.5651 12.348C87.8344 12.348 89.0291 12.544 90.1491 12.936V11.872C90.1491 11.032 89.8877 10.3973 89.3651 9.968C88.8424 9.53867 88.0771 9.324 87.0691 9.324C86.4531 9.324 85.7904 9.42667 85.0811 9.632C84.3717 9.81867 83.5504 10.1173 82.6171 10.528L81.2171 7.7C82.3744 7.17733 83.4757 6.78533 84.5211 6.524C85.5851 6.26267 86.6491 6.132 87.7131 6.132C89.6731 6.132 91.1944 6.608 92.2771 7.56C93.3784 8.49333 93.9291 9.81867 93.9291 11.536V21H90.1491V19.964C89.5517 20.412 88.9077 20.7387 88.2171 20.944C87.5264 21.1493 86.7704 21.252 85.9491 21.252ZM84.2691 16.688C84.2691 17.248 84.5117 17.696 84.9971 18.032C85.4824 18.3493 86.1264 18.508 86.9291 18.508C87.5637 18.508 88.1517 18.4333 88.6931 18.284C89.2344 18.116 89.7197 17.8733 90.1491 17.556V15.428C89.6824 15.2413 89.1971 15.1013 88.6931 15.008C88.1891 14.9147 87.6477 14.868 87.0691 14.868C86.1917 14.868 85.5011 15.036 84.9971 15.372C84.5117 15.6893 84.2691 16.128 84.2691 16.688ZM102.292 21.28C100.948 21.28 99.707 21.112 98.5683 20.776C97.4296 20.4213 96.4403 19.9173 95.6003 19.264L97.5043 16.716C98.3443 17.276 99.147 17.696 99.9123 17.976C100.696 18.256 101.471 18.396 102.236 18.396C103.095 18.396 103.776 18.256 104.28 17.976C104.803 17.6773 105.064 17.2947 105.064 16.828C105.064 16.4547 104.915 16.156 104.616 15.932C104.336 15.708 103.879 15.5493 103.244 15.456L100.444 15.036C98.9883 14.812 97.887 14.3453 97.1403 13.636C96.3936 12.908 96.0203 11.956 96.0203 10.78C96.0203 9.828 96.263 9.016 96.7483 8.344C97.2523 7.65333 97.9523 7.12133 98.8483 6.748C99.763 6.356 100.846 6.16 102.096 6.16C103.16 6.16 104.196 6.30933 105.204 6.608C106.231 6.90667 107.192 7.364 108.088 7.98L106.24 10.472C105.438 9.968 104.672 9.604 103.944 9.38C103.216 9.156 102.479 9.044 101.732 9.044C101.042 9.044 100.482 9.17467 100.052 9.436C99.6416 9.69733 99.4363 10.0427 99.4363 10.472C99.4363 10.864 99.5856 11.172 99.8843 11.396C100.183 11.62 100.696 11.7787 101.424 11.872L104.196 12.292C105.652 12.4973 106.763 12.964 107.528 13.692C108.294 14.4013 108.676 15.3253 108.676 16.464C108.676 17.3973 108.396 18.228 107.836 18.956C107.276 19.6653 106.52 20.2347 105.568 20.664C104.616 21.0747 103.524 21.28 102.292 21.28ZM112.52 21.28C111.904 21.28 111.372 21.056 110.924 20.608C110.476 20.16 110.252 19.628 110.252 19.012C110.252 18.3773 110.476 17.836 110.924 17.388C111.372 16.94 111.904 16.716 112.52 16.716C113.136 16.716 113.668 16.94 114.116 17.388C114.564 17.836 114.788 18.3773 114.788 19.012C114.788 19.628 114.564 20.16 114.116 20.608C113.668 21.056 113.136 21.28 112.52 21.28Z" fill="white"/>
</svg>
