<svg width="153" height="29" viewBox="0 0 153 29" fill="none" xmlns="http://www.w3.org/2000/svg">
<path d="M24.7441 8.73083L28.1965 1.1957L28.2089 1.16812H22.708L19.2631 8.67568L15.7485 1.17815L15.7435 1.16561H10.3347L12.2215 5.03596L5.78715 8.0816V2.71977L0 0V5.44455L5.70003 8.1217L0 10.8214V16.266L2.52394 15.0728L4.84876 20.0736H0V28.9975H4.92592V20.2416L8.98813 28.9875L8.9931 29H14.5338L8.07961 15.0602H2.55381L12.2563 10.4705L12.2688 10.4655V5.13623L16.8462 15.0577H11.8755V20.1138H16.8537V28.9975H22.2625V20.1138H27.2432V15.0577H22.255L19.288 8.73083H24.7441ZM16.8985 15.0953H22.2227V20.0711H16.8985V15.0953ZM49.8914 12.0798C48.8908 10.3101 46.0981 9.33745 44.3059 9.33745C39.3402 9.33745 35.6513 12.3931 35.6513 18.2964C35.6513 23.9214 39.4099 27.2553 44.408 27.2553C46.4764 27.2553 48.5822 26.561 49.8914 24.513L50.1677 26.8743H54.098V4.20123H49.8914V12.0798ZM44.6842 23.3324C41.996 23.3324 39.8579 21.2844 39.8579 18.2964C39.8579 15.2056 41.996 13.2955 44.6842 13.2955C47.3401 13.2955 49.6152 15.3109 49.6152 18.2964C49.6127 21.3872 47.3401 23.3324 44.6842 23.3324ZM57.1745 9.68338H61.3811V26.8743H57.1745V9.68338ZM61.7594 4.92817C61.7594 1.62935 56.7937 1.62935 56.7937 4.92817C56.7937 8.22699 61.7594 8.22699 61.7594 4.92817ZM75.2055 26.9445L82.4463 9.71847H77.8589L75.5167 15.4488L72.9305 22.6029L70.3095 15.3786L67.9648 9.71847H63.3799L70.6555 26.9445H75.2055ZM90.9864 27.3957C92.8831 27.3606 95.539 26.388 96.5023 24.3751L96.7088 26.8768H100.674V9.75607H96.6392L96.4998 12.1174C95.534 10.4153 93.3635 9.33996 91.086 9.33996C86.1227 9.30487 82.2223 12.3956 82.2223 18.2989C82.2273 24.305 85.9535 27.4308 90.9864 27.3957ZM91.4693 13.1226C98.0903 13.1226 98.0903 23.5053 91.4693 23.5053C88.674 23.5053 86.4363 21.5601 86.4363 18.2964C86.4339 15.0327 88.674 13.1226 91.4693 13.1226ZM108.032 18.1234C108.032 15.519 109.792 13.3306 112.375 13.3306C115.066 13.3306 116.48 15.3109 116.48 17.9154V26.8743H120.686V17.8803C120.686 12.4984 117.48 9.47532 113.48 9.47532C111.342 9.47532 109.62 10.3426 107.895 12.0447L107.619 9.71847H103.863V26.8743H108.034V18.1234H108.032ZM125.092 20.8307C125.092 25.1021 127.506 27.2202 131.195 27.0824C132.472 27.0473 133.473 26.8392 134.68 26.3529L133.508 22.7408C132.885 23.0541 132.129 23.2622 131.474 23.2622C130.162 23.2622 129.266 22.4625 129.266 20.8307V13.4334H133.991V9.78866H129.299V4.92817L125.092 5.37938V9.78866H121.921V13.4359H125.092V20.8307ZM144.646 27.3255C147.233 27.3255 150.162 26.4231 151.957 24.5481L149.269 21.8735C148.303 22.8812 146.267 23.4702 144.716 23.4702C141.749 23.4702 139.922 21.9411 139.646 19.823H152.923C153.577 12.7741 150.025 9.23217 144.338 9.23217C138.819 9.23217 135.302 12.9822 135.302 18.1911C135.302 23.6808 138.785 27.3255 144.646 27.3255ZM144.475 12.9847C146.889 12.9847 148.614 14.0952 148.888 16.3186H139.715C140.335 14.0952 142.197 12.9847 144.475 12.9847Z" fill="#5E5E5E"/>
</svg>
