<svg width="64" height="64" viewBox="0 0 64 64" fill="none" xmlns="http://www.w3.org/2000/svg">
<g clip-path="url(#clip0_416_4739)">
<rect width="64" height="64" fill="white"/>
<rect width="64" height="64" fill="#070707"/>
<path d="M31.5503 45.37C29.4783 45.37 27.4803 44.963 25.5563 44.149C23.6323 43.335 21.9303 42.188 20.4503 40.708L22.8183 37.97C24.2243 39.3513 25.655 40.375 27.1103 41.041C28.5903 41.707 30.132 42.04 31.7353 42.04C32.9933 42.04 34.091 41.8673 35.0283 41.522C35.9903 41.152 36.7303 40.634 37.2483 39.968C37.7663 39.302 38.0253 38.5497 38.0253 37.711C38.0253 36.5517 37.6183 35.6637 36.8043 35.047C35.9903 34.4303 34.646 33.9617 32.7713 33.641L28.4423 32.938C26.0743 32.5187 24.2983 31.754 23.1143 30.644C21.955 29.534 21.3753 28.054 21.3753 26.204C21.3753 24.724 21.77 23.429 22.5593 22.319C23.3486 21.1843 24.4586 20.3087 25.8893 19.692C27.3446 19.0753 29.022 18.767 30.9213 18.767C32.796 18.767 34.6336 19.0753 36.4343 19.692C38.2596 20.284 39.9 21.1473 41.3553 22.282L39.2093 25.242C36.422 23.1207 33.5976 22.06 30.7363 22.06C29.6016 22.06 28.615 22.2203 27.7763 22.541C26.9376 22.8617 26.284 23.318 25.8153 23.91C25.3466 24.4773 25.1123 25.1433 25.1123 25.908C25.1123 26.9687 25.47 27.7827 26.1853 28.35C26.9006 28.8927 28.0846 29.2873 29.7373 29.534L33.9183 30.237C36.6563 30.681 38.6666 31.4827 39.9493 32.642C41.232 33.8013 41.8733 35.3923 41.8733 37.415C41.8733 38.9937 41.4416 40.3873 40.5783 41.596C39.715 42.78 38.5063 43.705 36.9523 44.371C35.3983 45.037 33.5976 45.37 31.5503 45.37Z" fill="white"/>
</g>
<defs>
<clipPath id="clip0_416_4739">
<rect width="64" height="64" fill="white"/>
</clipPath>
</defs>
</svg>
