<svg width="291" height="22" viewBox="0 0 291 22" fill="none" xmlns="http://www.w3.org/2000/svg">
<g clip-path="url(#clip0_395_1343)">
<path d="M0 3.13647C0.410615 3.13647 0.821229 3.13647 1.23184 3.13647C2.8743 3.13647 4.37989 3.13647 6.02235 3.13647C7.25419 3.13647 7.80168 3.54557 8.07542 4.77284C8.48603 6.54557 8.75978 8.18193 9.17039 9.95466C9.17039 10.091 9.17039 10.2274 9.17039 10.2274C8.75978 9.54557 8.34916 8.86375 7.80168 8.18193C5.88548 5.72738 3.28492 4.22738 0.136872 3.4092H0C0 3.4092 0 3.27284 0 3.13647Z" fill="#5E5E5E"/>
<path d="M49.0003 17.8637C47.9053 17.8637 46.6734 17.8637 45.5785 17.8637C45.4416 17.8637 45.3047 17.7273 45.3047 17.591C45.1679 17.0455 45.1679 16.5001 45.031 15.9546C45.031 15.8183 44.7572 15.6819 44.6204 15.6819C43.1148 15.6819 41.6092 15.6819 40.1036 15.6819C39.9667 15.6819 39.8299 15.8183 39.693 15.9546C39.4193 16.5001 39.2824 17.0455 39.0086 17.591C39.0086 17.7273 38.7349 17.8637 38.598 17.8637C37.3662 17.8637 35.9975 17.8637 34.7656 17.8637C34.7656 17.7273 34.9025 17.591 34.9025 17.4546C36.8187 13.2273 38.7349 9.00007 40.5142 4.7728C40.9248 3.81825 41.6092 3.2728 42.7042 3.40916C43.6623 3.40916 44.4835 3.40916 45.4416 3.40916C45.7153 3.40916 45.8522 3.40916 45.8522 3.68189C46.9472 8.45462 47.9053 13.091 49.0003 17.7273C49.1371 17.7273 49.0003 17.7273 49.0003 17.8637ZM43.1148 7.36371C42.2936 9.13644 41.6092 10.7728 40.9248 12.5455C42.0198 12.5455 43.1148 12.5455 44.2098 12.5455C43.7991 10.9092 43.5254 9.13644 43.1148 7.36371Z" fill="#5E5E5E"/>
<path d="M24.2259 14.0455C25.0471 14.3182 25.8684 14.591 26.8265 14.8637C27.7846 15 28.7427 15.1364 29.7008 14.8637C29.9745 14.7273 30.2482 14.7273 30.3851 14.591C31.0695 14.1819 31.0695 13.3637 30.522 12.8182C30.1114 12.5455 29.7008 12.2728 29.2901 12C28.7427 11.591 28.0583 11.3182 27.3739 11.0455C24.089 9.00004 25.184 5.72731 27.3739 4.36368C29.0164 3.27277 30.9326 3.00004 32.8488 3.1364C33.67 3.1364 34.4913 3.40913 35.3125 3.5455C35.4494 3.5455 35.5862 3.81822 35.5862 3.95459C35.4494 4.90913 35.3125 5.86368 35.1756 6.81822C34.0806 6.27277 32.8488 6.00004 31.7538 6.1364C31.2063 6.1364 30.6589 6.27277 30.2482 6.5455C29.427 6.95459 29.427 7.6364 30.1114 8.18186C30.6589 8.59095 31.3432 8.86368 32.0276 9.27277C32.5751 9.5455 32.9857 9.81822 33.5332 10.0909C35.4494 11.4546 35.86 13.9091 34.3544 15.8182C33.5332 16.7728 32.4382 17.3182 31.3432 17.7273C29.0164 18.4091 26.6896 18.1364 24.3628 17.4546C24.089 17.3182 23.9521 17.1819 23.9521 16.9091C23.9521 15.9546 24.089 15 24.2259 14.0455Z" fill="#5E5E5E"/>
<path d="M3.96973 5.72725C5.33844 6.6818 6.57029 7.77271 7.66526 8.99998C8.76023 10.2273 9.58146 11.4545 9.99207 13.0909C10.5396 11.7273 11.087 10.3636 11.6345 8.86361C12.3189 7.22725 13.0032 5.45452 13.6876 3.6818C13.8245 3.40907 13.9613 3.27271 14.2351 3.27271C15.4669 3.27271 16.6988 3.27271 18.0675 3.27271C17.52 4.63634 16.8356 5.99998 16.2882 7.36361C14.7826 10.7727 13.4139 14.0454 11.9083 17.4545C11.7714 17.7273 11.6345 17.8636 11.2239 17.8636C10.1289 17.8636 8.8971 17.8636 7.80213 17.8636C7.52839 17.8636 7.39151 17.7273 7.39151 17.5909C6.29654 13.6363 5.20157 9.81816 4.1066 5.99998C4.1066 5.99998 4.1066 5.86361 3.96973 5.72725Z" fill="#5E5E5E"/>
<path d="M21.2154 17.8636C19.8467 17.8636 18.6148 17.8636 17.2461 17.8636C18.0673 12.9545 18.8886 8.1818 19.7098 3.27271C21.0785 3.27271 22.3103 3.27271 23.6791 3.27271C22.8578 8.1818 22.0366 12.9545 21.2154 17.8636Z" fill="#5E5E5E"/>
</g>
<g clip-path="url(#clip1_395_1343)">
<path d="M178.684 6.18872H175.033C174.912 6.18865 174.795 6.23038 174.703 6.30639C174.611 6.3824 174.55 6.48769 174.532 6.6033L173.055 15.6688C173.048 15.7109 173.051 15.7539 173.063 15.7948C173.075 15.8358 173.096 15.8737 173.125 15.9061C173.153 15.9384 173.189 15.9643 173.229 15.9821C173.269 15.9999 173.312 16.009 173.356 16.009H175.099C175.22 16.009 175.337 15.9672 175.429 15.8911C175.521 15.815 175.582 15.7096 175.6 15.5939L175.999 13.1488C176.017 13.0331 176.078 12.9278 176.17 12.8517C176.262 12.7756 176.378 12.7337 176.499 12.7337H177.655C180.06 12.7337 181.448 11.6067 181.81 9.37356C181.974 8.39656 181.817 7.62891 181.345 7.09129C180.826 6.50095 179.906 6.18872 178.684 6.18872ZM179.105 9.4997C178.905 10.7683 177.904 10.7683 176.936 10.7683H176.386L176.772 8.39914C176.783 8.32983 176.82 8.2667 176.875 8.22112C176.93 8.17554 177 8.15049 177.073 8.15049H177.325C177.984 8.15049 178.606 8.15049 178.928 8.51442C179.119 8.73153 179.178 9.0541 179.105 9.4997ZM189.597 9.45886H187.849C187.776 9.45886 187.706 9.48391 187.651 9.52949C187.596 9.57507 187.56 9.63819 187.548 9.70751L187.471 10.181L187.349 10.0094C186.97 9.47747 186.126 9.29964 185.284 9.29964C183.352 9.29964 181.702 10.7166 181.38 12.7042C181.213 13.6957 181.451 14.6437 182.031 15.3049C182.564 15.9128 183.327 16.1661 184.234 16.1661C185.79 16.1661 186.653 15.1969 186.653 15.1969L186.576 15.6673C186.569 15.7093 186.571 15.7523 186.583 15.7933C186.595 15.8344 186.616 15.8724 186.644 15.9048C186.673 15.9372 186.708 15.9633 186.748 15.9812C186.788 15.9991 186.832 16.0084 186.876 16.0084H188.45C188.571 16.0085 188.688 15.9667 188.78 15.8906C188.872 15.8145 188.933 15.709 188.952 15.5933L189.897 9.799C189.904 9.75704 189.901 9.71411 189.889 9.67319C189.877 9.63227 189.856 9.59432 189.828 9.56198C189.799 9.52964 189.764 9.50367 189.724 9.48586C189.684 9.46806 189.641 9.45885 189.597 9.45886ZM187.16 12.7538C186.991 13.721 186.199 14.3703 185.188 14.3703C184.68 14.3703 184.274 14.2126 184.014 13.9138C183.755 13.6171 183.657 13.1948 183.739 12.7243C183.897 11.7654 184.703 11.095 185.698 11.095C186.195 11.095 186.599 11.2547 186.864 11.5561C187.131 11.8605 187.236 12.2855 187.16 12.7538ZM198.908 9.45886H197.152C197.069 9.45899 196.987 9.47869 196.914 9.51625C196.841 9.55381 196.778 9.60811 196.731 9.67442L194.308 13.1307L193.281 9.80934C193.25 9.70804 193.185 9.61926 193.098 9.55614C193.01 9.49302 192.904 9.45891 192.794 9.45886H191.068C191.019 9.45873 190.972 9.46982 190.928 9.49119C190.885 9.51257 190.848 9.54361 190.82 9.58174C190.792 9.61987 190.773 9.66398 190.766 9.7104C190.759 9.75682 190.763 9.80421 190.779 9.84863L192.714 15.3478L190.895 17.8348C190.863 17.8789 190.843 17.9307 190.839 17.9847C190.836 18.0386 190.847 18.0926 190.873 18.1406C190.898 18.1887 190.937 18.229 190.985 18.2571C191.032 18.2852 191.087 18.3 191.143 18.3H192.898C192.98 18.3001 193.061 18.281 193.133 18.2443C193.206 18.2075 193.268 18.1543 193.315 18.0891L199.158 9.92152C199.19 9.87733 199.208 9.82559 199.212 9.7719C199.215 9.71822 199.204 9.66464 199.178 9.61698C199.152 9.56931 199.113 9.52938 199.066 9.50151C199.018 9.47363 198.964 9.45888 198.908 9.45886Z" fill="#5E5E5E"/>
<path d="M204.725 6.18875H201.074C200.953 6.1888 200.836 6.23058 200.745 6.30658C200.653 6.38258 200.592 6.48781 200.573 6.60333L199.097 15.6688C199.09 15.7108 199.092 15.7538 199.104 15.7947C199.116 15.8356 199.137 15.8735 199.166 15.9059C199.194 15.9382 199.229 15.9642 199.269 15.982C199.309 15.9998 199.353 16.009 199.397 16.009H201.27C201.355 16.0089 201.437 15.9795 201.501 15.9263C201.565 15.873 201.607 15.7993 201.621 15.7185L202.04 13.1488C202.058 13.0332 202.119 12.9278 202.211 12.8517C202.303 12.7756 202.419 12.7337 202.54 12.7337H203.696C206.101 12.7337 207.489 11.6068 207.852 9.37359C208.015 8.39658 207.858 7.62893 207.385 7.09132C206.867 6.50098 205.947 6.18875 204.725 6.18875ZM205.147 9.49973C204.947 10.7683 203.946 10.7683 202.978 10.7683H202.428L202.815 8.39917C202.826 8.32985 202.862 8.26668 202.917 8.22107C202.972 8.17546 203.042 8.15044 203.115 8.15052H203.367C204.026 8.15052 204.648 8.15052 204.97 8.51445C205.162 8.73156 205.22 9.05413 205.147 9.49973ZM215.638 9.45889H213.891C213.818 9.45869 213.748 9.48368 213.693 9.52931C213.638 9.57494 213.602 9.63818 213.591 9.70753L213.513 10.181L213.391 10.0094C213.012 9.4775 212.169 9.29967 211.326 9.29967C209.394 9.29967 207.745 10.7166 207.423 12.7042C207.257 13.6957 207.493 14.6438 208.074 15.3049C208.608 15.9128 209.369 16.1661 210.276 16.1661C211.833 16.1661 212.696 15.1969 212.696 15.1969L212.618 15.6673C212.611 15.7094 212.614 15.7525 212.626 15.7936C212.638 15.8347 212.659 15.8728 212.687 15.9052C212.716 15.9377 212.752 15.9637 212.792 15.9815C212.832 15.9994 212.875 16.0086 212.919 16.0085H214.494C214.614 16.0084 214.731 15.9665 214.823 15.8904C214.915 15.8143 214.976 15.709 214.994 15.5934L215.94 9.79903C215.946 9.75693 215.944 9.71393 215.932 9.67298C215.92 9.63202 215.898 9.59408 215.87 9.56177C215.841 9.52945 215.806 9.50352 215.766 9.48577C215.726 9.46801 215.682 9.45884 215.638 9.45889ZM213.201 12.7538C213.034 13.721 212.24 14.3703 211.229 14.3703C210.722 14.3703 210.315 14.2126 210.055 13.9138C209.796 13.6171 209.699 13.1948 209.78 12.7244C209.939 11.7655 210.744 11.095 211.74 11.095C212.236 11.095 212.64 11.2547 212.905 11.5561C213.173 11.8606 213.279 12.2855 213.201 12.7538ZM217.699 6.4374L216.201 15.6688C216.194 15.7108 216.197 15.7538 216.209 15.7947C216.22 15.8356 216.241 15.8735 216.27 15.9059C216.298 15.9382 216.334 15.9642 216.374 15.982C216.414 15.9998 216.457 16.009 216.501 16.009H218.007C218.258 16.009 218.47 15.8332 218.509 15.5939L219.986 6.52889C219.993 6.48687 219.991 6.44391 219.979 6.40297C219.967 6.36202 219.946 6.32406 219.917 6.29169C219.889 6.25932 219.853 6.23331 219.814 6.21545C219.774 6.19759 219.73 6.18831 219.686 6.18823H217.999C217.927 6.18848 217.857 6.21369 217.802 6.25935C217.747 6.305 217.711 6.36812 217.699 6.4374Z" fill="#5E5E5E"/>
<path d="M157.894 17.7704L158.173 16.0532L157.551 16.0392H154.581L156.645 3.36755C156.651 3.32883 156.671 3.29354 156.702 3.26811C156.733 3.24268 156.772 3.2288 156.813 3.22901H161.82C163.482 3.22901 164.63 3.56398 165.229 4.22514C165.509 4.5353 165.688 4.85942 165.775 5.21611C165.865 5.59037 165.867 6.03752 165.778 6.58289L165.772 6.62269V6.97214L166.053 7.12619C166.267 7.23135 166.46 7.37361 166.621 7.54594C166.862 7.81113 167.017 8.14817 167.083 8.54776C167.15 8.95873 167.128 9.44775 167.017 10.0014C166.889 10.6383 166.682 11.1929 166.402 11.6468C166.155 12.0534 165.823 12.4055 165.428 12.6807C165.056 12.936 164.615 13.1299 164.115 13.2539C163.632 13.3759 163.08 13.4375 162.476 13.4375H162.086C161.807 13.4375 161.536 13.5346 161.324 13.7089C161.112 13.8849 160.971 14.1282 160.927 14.3953L160.897 14.5499L160.404 17.5766L160.382 17.6877C160.376 17.7229 160.366 17.7404 160.351 17.7523C160.336 17.7638 160.318 17.7702 160.3 17.7704H157.894Z" fill="#5E5E5E"/>
<path d="M166.319 6.66309C166.304 6.75562 166.287 6.85022 166.268 6.9474C165.607 10.2305 163.348 11.3646 160.463 11.3646H158.993C158.641 11.3646 158.343 11.6128 158.288 11.9498L157.536 16.5691L157.323 17.8785C157.314 17.9305 157.318 17.9836 157.332 18.0342C157.347 18.0848 157.373 18.1317 157.408 18.1717C157.444 18.2117 157.487 18.2438 157.537 18.2658C157.586 18.2879 157.64 18.2993 157.694 18.2993H160.3C160.608 18.2993 160.87 18.0822 160.919 17.7876L160.945 17.6594L161.435 14.6446L161.467 14.4792C161.515 14.1835 161.777 13.9664 162.086 13.9664H162.476C165 13.9664 166.976 12.9738 167.554 10.1017C167.795 8.90194 167.67 7.90011 167.032 7.19553C166.83 6.97757 166.588 6.79714 166.319 6.66309Z" fill="#8E8E8E"/>
<path d="M165.627 6.39645C165.416 6.33739 165.202 6.29129 164.985 6.25843C164.556 6.19466 164.123 6.16407 163.69 6.16693H159.765C159.615 6.16682 159.471 6.21846 159.357 6.31251C159.244 6.40656 159.169 6.53681 159.146 6.67973L158.311 11.8005L158.287 11.9499C158.313 11.7869 158.399 11.6383 158.528 11.5309C158.657 11.4236 158.822 11.3646 158.992 11.3647H160.461C163.347 11.3647 165.606 10.2301 166.266 6.94751C166.286 6.85032 166.303 6.75572 166.318 6.66319C166.143 6.57471 165.962 6.50052 165.775 6.44143C165.726 6.42567 165.676 6.41068 165.627 6.39645Z" fill="#5E5E5E"/>
<path d="M159.148 6.6796C159.171 6.53664 159.246 6.40632 159.359 6.31232C159.473 6.21832 159.617 6.16687 159.767 6.16732H163.691C164.156 6.16732 164.59 6.19678 164.987 6.25881C165.255 6.29961 165.519 6.36062 165.777 6.44129C165.972 6.50384 166.153 6.57776 166.32 6.66306C166.517 5.44981 166.319 4.62374 165.641 3.87574C164.894 3.05226 163.546 2.69971 161.821 2.69971H156.814C156.462 2.69971 156.161 2.94784 156.107 3.2854L154.021 16.0873C154.011 16.1468 154.015 16.2075 154.032 16.2654C154.049 16.3234 154.078 16.3771 154.119 16.4229C154.159 16.4686 154.209 16.5054 154.265 16.5307C154.322 16.5559 154.383 16.569 154.445 16.5691H157.537L158.313 11.8004L159.148 6.6796Z" fill="#5E5E5E"/>
</g>
<path fill-rule="evenodd" clip-rule="evenodd" d="M119.622 10.84C119.622 4.85345 114.768 0.000209055 108.782 0.000209055C106.184 0.000209055 103.82 0.909345 101.954 2.43318C103.378 3.80804 104.465 5.52942 105.048 7.47521H104.147C103.583 5.74529 102.591 4.21895 101.303 2.99413C100.005 4.22966 99.0341 5.76745 98.4764 7.47H97.5756C98.1508 5.55988 99.2049 3.82858 100.638 2.44069C98.7756 0.932474 96.423 0 93.8398 0C87.8534 0 83 4.85324 83 10.8398C83 16.8262 87.8532 21.6795 93.8398 21.6795C96.4228 21.6795 98.7756 20.747 100.638 19.2388C99.2248 17.8681 98.1563 16.1444 97.5756 14.2097H98.4764C99.0342 15.9122 100.005 17.45 101.303 18.6855C102.592 17.4605 103.583 15.9344 104.147 14.2042H105.048C104.465 16.15 103.378 17.8716 101.954 19.2463C103.82 20.7699 106.184 21.6792 108.782 21.6792C114.768 21.6795 119.622 16.8262 119.622 10.84Z" fill="#5E5E5E"/>
<path fill-rule="evenodd" clip-rule="evenodd" d="M111.655 13.3792L112.403 9.36846H113.349L113.448 9.76374C113.618 9.56579 113.943 9.36846 114.493 9.36846L114.197 10.4132C113.929 10.4132 113.42 10.343 113.096 11.5433L112.756 13.3792H111.655ZM97.1507 8.34909H98.2413L98.0175 9.4118H98.6045L98.4091 10.2786H97.8498L97.542 11.9004C97.486 12.2082 97.5141 12.488 98.1434 12.3901L98.0734 13.2009C97.8356 13.3547 97.5141 13.397 97.2622 13.397C97.0107 13.397 96.1855 13.2428 96.3956 12.1523L97.1507 8.34909ZM101.877 11.5931C102.003 10.9496 102.297 9.35596 100.381 9.35596C98.6189 9.35596 98.3953 11.1036 98.3534 11.3551C98.3116 11.607 98.2836 13.3826 100.171 13.3826C100.633 13.3967 101.304 13.3407 101.57 13.2007L101.737 12.3761C101.57 12.4176 100.94 12.4739 100.507 12.4739C100.073 12.4739 99.3743 12.502 99.4999 11.5931H101.877ZM96.1163 10.3068L96.3679 9.49557C95.8505 9.29991 95.4452 9.342 95.2912 9.342C95.1372 9.342 93.828 9.32595 93.6273 10.2928C93.4735 11.034 93.7448 11.3405 94.0049 11.4532C94.4246 11.6352 94.6623 11.8029 94.8861 11.9148C95.1628 12.0532 95.112 12.516 94.7461 12.516C94.5781 12.516 93.8513 12.5997 93.306 12.4178L93.1522 13.2428C93.6557 13.3828 94.0607 13.3828 94.4387 13.3828C94.7042 13.3828 96.0047 13.4528 96.1861 12.2501C96.2749 11.6637 96.0184 11.397 95.8086 11.2717C95.599 11.1317 95.2493 10.9361 95.0257 10.8379C94.8019 10.7402 94.6342 10.3628 95.0397 10.2509C95.2912 10.2228 95.8084 10.2228 96.1163 10.3068ZM89.0412 13.3826L89.9499 8.54476H88.1604L86.8318 11.4812L86.622 8.54476H84.8744L83.9375 13.3826H85.0279L85.6991 9.8871L85.9929 13.3826H87.0275L88.5517 9.97108L87.9085 13.3826H89.0412ZM90.2433 9.48182L90.0756 10.3487C90.3415 10.3209 91.0545 10.209 91.4319 10.2228C91.8097 10.2368 92.2289 10.1809 92.1031 10.7821C91.8234 10.8102 89.866 10.5024 89.5586 12.1801C89.4327 13.0054 90.1456 13.4247 90.7049 13.397C91.2641 13.3688 91.4179 13.2988 91.6138 13.1588L91.7536 13.3826H92.774L93.2076 11.2015C93.3195 10.6562 93.501 9.34179 91.6696 9.34179C91.3342 9.35596 90.9568 9.34179 90.2433 9.48182ZM107.917 9.66331C107.637 9.49536 107.442 9.46765 107.078 9.46765C106.715 9.46765 105.903 9.81501 105.75 10.796C105.568 11.9565 106.365 12.5295 107.484 12.1523L107.805 13.1311C107.442 13.2988 107.078 13.3826 106.477 13.3826C105.344 13.3826 104.114 12.3761 104.673 10.3345C105.086 8.83023 106.379 8.27929 107.134 8.30721C108.029 8.34055 108.351 8.64269 108.63 8.95046L107.917 9.66331ZM117.215 9.83105C117.005 9.67748 116.88 9.35596 116.362 9.35596C115.761 9.35596 114.824 9.24406 114.293 11.0617C113.938 12.2765 114.657 13.3828 115.439 13.3828C115.803 13.369 116.167 13.215 116.39 13.0613L116.53 13.3828H117.705L118.656 8.29346H117.509L117.215 9.83105ZM108.7 9.48182L108.532 10.3487C108.798 10.3209 109.511 10.209 109.889 10.2228C110.266 10.2368 110.686 10.1809 110.56 10.7821C110.28 10.8102 108.323 10.5024 108.015 12.1801C107.889 13.0054 108.602 13.4247 109.161 13.397C109.721 13.3688 109.874 13.2988 110.071 13.1588L110.211 13.3826H111.231L111.665 11.2015C111.776 10.6562 111.958 9.34179 110.126 9.34179C109.791 9.35596 109.413 9.34179 108.7 9.48182Z" fill="white"/>
<path fill-rule="evenodd" clip-rule="evenodd" d="M99.5698 10.8652H100.926C100.996 10.4736 100.87 10.1379 100.437 10.1379C100.003 10.1379 99.6956 10.3617 99.5698 10.8652ZM91.9216 11.5922C91.7397 11.5636 91.3342 11.4522 90.9845 11.6899C90.6349 11.9277 90.5372 12.3467 90.9008 12.4871C91.2506 12.6216 91.7672 12.3894 91.8376 12.0252L91.9216 11.5922ZM116.824 11.4661C116.936 11.1027 116.875 10.6489 116.754 10.4878C116.419 10.0404 115.647 10.394 115.412 11.2709C115.258 11.8439 115.594 12.2773 115.971 12.2773C116.377 12.2771 116.628 11.9556 116.824 11.4661ZM110.378 11.5922C110.196 11.5636 109.791 11.4522 109.441 11.6899C109.092 11.9277 108.994 12.3467 109.358 12.4871C109.708 12.6216 110.224 12.3894 110.294 12.0252L110.378 11.5922Z" fill="#5E5E5E"/>
<path fill-rule="evenodd" clip-rule="evenodd" d="M101.908 13.3824L102.649 9.41162H103.586L103.684 9.80316C103.852 9.60728 104.174 9.41162 104.719 9.41162L104.439 10.4604C104.174 10.4604 103.656 10.3766 103.334 11.5645L102.999 13.3826L101.908 13.3824Z" fill="white"/>
<g clip-path="url(#clip2_395_1343)">
<path fill-rule="evenodd" clip-rule="evenodd" d="M257.864 9.77673C257.067 9.48954 256.63 9.26618 256.63 8.91517C256.63 8.6173 256.881 8.44714 257.329 8.44714C258.148 8.44714 258.988 8.75563 259.566 9.03212L259.894 7.06443C259.435 6.85167 258.497 6.50067 257.198 6.50067C256.281 6.50067 255.517 6.73464 254.971 7.17076C254.404 7.62811 254.109 8.28759 254.109 9.08533C254.109 10.5319 255.015 11.1488 256.488 11.67C257.438 11.9997 257.755 12.2338 257.755 12.5954C257.755 12.9464 257.449 13.1484 256.892 13.1484C256.205 13.1484 255.07 12.8187 254.327 12.3933L254 14.3823C254.633 14.7333 255.812 15.0949 257.034 15.0949C258.006 15.0949 258.813 14.8716 259.359 14.4461C259.97 13.9781 260.287 13.2868 260.287 12.3933C260.287 10.9148 259.359 10.2979 257.864 9.77673ZM265.617 8.6173L265.945 6.66021H264.216V4.28439L261.892 4.6571L261.556 6.66021L260.739 6.78945L260.433 8.6173H261.553V12.4571C261.553 13.4569 261.815 14.1483 262.35 14.5738C262.797 14.9248 263.441 15.0949 264.347 15.0949C265.045 15.0949 265.471 14.978 265.766 14.9035V12.8293C265.602 12.8719 265.231 12.9464 264.98 12.9464C264.445 12.9464 264.216 12.6805 264.216 12.0742V8.6173H265.617ZM270.808 6.5459C270.044 6.5459 269.433 6.93679 269.193 7.6388L269.029 6.66021H266.661V14.9354H269.368V9.56397C269.706 9.15976 270.186 9.01361 270.841 9.01361C270.983 9.01361 271.136 9.01361 271.321 9.04552V6.60972C271.136 6.5672 270.972 6.5459 270.808 6.5459ZM273.34 5.84118C274.126 5.84118 274.759 5.21368 274.759 4.44785C274.759 3.67133 274.126 3.05444 273.34 3.05444C272.544 3.05444 271.911 3.67133 271.911 4.44785C271.911 5.21368 272.544 5.84118 273.34 5.84118ZM271.976 6.66021H274.694V14.9354H271.976V6.66021ZM282.395 7.40474C281.915 6.79846 281.249 6.50067 280.398 6.50067C279.612 6.50067 278.924 6.81976 278.281 7.48986L278.139 6.66021H275.759V17.9987L278.466 17.5626V14.9035C278.881 15.0311 279.306 15.0949 279.688 15.0949C280.365 15.0949 281.348 14.9248 282.111 14.1164C282.843 13.3399 283.214 12.138 283.214 10.5532C283.214 9.14915 282.941 8.08553 282.395 7.40474ZM280.147 12.5103C279.929 12.9145 279.59 13.1272 279.197 13.1272C278.924 13.1272 278.684 13.074 278.466 12.9677V9.03212C278.924 8.56417 279.339 8.51096 279.492 8.51096C280.18 8.51096 280.518 9.23427 280.518 10.6489C280.518 11.4572 280.398 12.0848 280.147 12.5103ZM290.974 10.7233C290.974 9.40443 290.679 8.36202 290.101 7.62811C289.511 6.88358 288.627 6.50067 287.503 6.50067C285.2 6.50067 283.771 8.15996 283.771 10.8191C283.771 12.3082 284.152 13.425 284.906 14.1376C285.582 14.7758 286.554 15.0949 287.809 15.0949C288.966 15.0949 290.035 14.829 290.712 14.3929L290.417 12.5848C289.752 12.9358 288.977 13.1272 288.104 13.1272C287.58 13.1272 287.219 13.0208 286.958 12.7974C286.674 12.5635 286.51 12.1805 286.455 11.6381H290.941C290.952 11.5105 290.974 10.9148 290.974 10.7233ZM286.434 10.0213C286.51 8.84067 286.837 8.28759 287.46 8.28759C288.071 8.28759 288.387 8.85136 288.431 10.0213H286.434Z" fill="#5E5E5E"/>
</g>
<defs>
<clipPath id="clip0_395_1343">
<rect width="49" height="15" fill="white" transform="translate(0 3)"/>
</clipPath>
<clipPath id="clip1_395_1343">
<rect width="66" height="17" fill="white" transform="translate(154 2)"/>
</clipPath>
<clipPath id="clip2_395_1343">
<rect width="37" height="15" fill="white" transform="translate(254 3)"/>
</clipPath>
</defs>
</svg>
